<?xml version="1.0" encoding="iso-8859-1"?>
<!-- Uploaded to: SVG Repo, www.svgrepo.com, Generator: SVG Repo Mixer Tools -->
<svg fill="#000000" height="800px" width="800px" version="1.1" id="Layer_1" xmlns="http://www.w3.org/2000/svg" xmlns:xlink="http://www.w3.org/1999/xlink" 
	 viewBox="0 0 375.586 375.586" xml:space="preserve">
<g>
	<g>
		<g>
			<path d="M375.186,144.793c-0.8-2.8-3.2-4.8-5.6-5.2l-114-26.8l-61.2-100c-1.6-2.4-4-4-6.8-4s-5.2,1.6-6.8,4l-60.8,99.6l-114,26.8
				c-2.8,0.8-4.8,2.8-5.6,5.2c-0.8,2.8-0.4,5.6,1.6,7.6l76.4,89.2l-9.2,116.8c-0.4,2.8,1.2,5.6,3.2,7.2c2.4,1.6,5.2,2,7.6,0.8
				l107.6-45.2l108,45.2c0.8,0.4,2,0.8,3.2,0.8c1.6,0,3.2-0.4,4.8-1.6c2.4-1.6,3.6-4.4,3.2-7.2l-9.2-116.8l76.4-89.2
				C375.586,150.393,375.986,147.193,375.186,144.793z M283.186,233.593c-1.2,1.6-2,3.6-2,6l8.4,106.8l-98.8-41.2
				c-0.8-0.4-2-0.8-3.2-0.8s-2,0.4-3.2,0.8l-98.8,41.2l8.4-106.8c0-2-0.4-4.4-2-6l-69.2-81.6l104.4-24.4c2-0.4,4-2,5.2-3.6
				l55.6-91.6l56,91.6c1.2,2,2.8,3.2,4.8,3.6l104.4,24.4L283.186,233.593z"/>
			<path d="M94.786,182.793l-8-9.6c-2.8-3.2-8-4-11.2-1.2c-3.2,2.8-4,8-1.2,11.2l8,9.6c1.6,2,4,2.8,6,2.8s3.6-0.8,5.2-2
				C97.186,191.193,97.586,186.393,94.786,182.793z"/>
			<path d="M109.586,199.593c-2.8-3.2-8-3.6-11.2-0.8c-3.2,2.8-3.6,8-0.8,11.2l2.4,2.8c9.2,10.8,13.6,24.4,12.4,38.4l-2,25.2
				c-0.4,4.4,2.8,8.4,7.2,8.8c0.4,0,0.4,0,0.8,0c4,0,7.6-3.2,8-7.2l2-25.2c1.2-18-4.4-35.6-16.4-50L109.586,199.593z"/>
		</g>
	</g>
</g>
</svg>